<svg xmlns="http://www.w3.org/2000/svg" width="1200" height="630" viewBox="0 0 1200 630">
  <defs>
    <radialGradient id="bgLight" cx="50%" cy="40%" r="80%">
      <stop offset="0%" stop-color="#FFFFFF"/>
      <stop offset="100%" stop-color="#EEF1F6"/>
    </radialGradient>
    <linearGradient id="legibilityLight" x1="0" y1="0" x2="0" y2="1">
      <stop offset="55%" stop-color="#FFFFFF00"/>
      <stop offset="100%" stop-color="#FFFFFFCC"/>
    </linearGradient>
    <style><![CDATA[
      .font-sans { font-family: Inter, -apple-system, BlinkMacSystemFont, "Segoe UI", Roboto, "Helvetica Neue", Arial, "Noto Sans", "Liberation Sans", "DejaVu Sans", sans-serif; }
      .headline { fill: #0B0C10; font-weight: 800; font-size: 72px; letter-spacing: -0.5px; }
      .subhead { fill: #30343B; opacity: 0.9; font-weight: 600; font-size: 38px; }
      .pillText { fill: #0B0C10; font-weight: 700; font-size: 26px; letter-spacing: 0.2px; }
      .pillBg { fill: #0B0C10; opacity: 0.06; }
      .pillStroke { fill: none; stroke: #0B0C10; stroke-opacity: 0.10; }
      .brand { fill: #30343B; opacity: 0.92; font-weight: 700; font-size: 24px; letter-spacing: 0.2px; }
      .accent { fill: #5B8CFF; }
      .plateRim { fill: none; stroke: #D6DBE4; stroke-width: 10; }
      .plateFill { fill: #FFFFFF; }
      .glyph { fill: #D6DBE4; }
    ]]></style>
  </defs>

  <rect x="0" y="0" width="1200" height="630" fill="url(#bgLight)"/>

  <!-- Simple plate glyph as thumbprint -->
  <g transform="translate(800,140)">
    <circle cx="180" cy="180" r="160" class="plateFill"/>
    <circle cx="180" cy="180" r="160" class="plateRim"/>
    <circle cx="180" cy="180" r="26" class="glyph" opacity="0.6"/>
  </g>

  <!-- Bottom legibility area for text (light) -->
  <rect x="0" y="0" width="1200" height="630" fill="url(#legibilityLight)"/>

  <!-- Accent keyline at top -->
  <rect x="0" y="0" width="1200" height="6" class="accent"/>

  <g id="safe" transform="translate(48,48)">
    <g transform="translate(0,390)">
      <text class="font-sans headline" x="0" y="0">Chicken Caesar Salad</text>
      <text class="font-sans subhead" x="0" y="56">520 kcal · per bowl</text>

      <!-- Confidence chip -->
      <g transform="translate(0,90)">
        <rect x="0" y="0" width="104" height="42" rx="10" class="pillBg"/>
        <rect x="0.5" y="0.5" width="103" height="41" rx="9.5" class="pillStroke"/>
        <text class="font-sans pillText" x="20" y="28">±7%</text>
      </g>

      <!-- Macro pills row -->
      <g transform="translate(120,90)">
        <g>
          <rect x="0" y="0" width="112" height="42" rx="10" class="pillBg"/>
          <rect x="0.5" y="0.5" width="111" height="41" rx="9.5" class="pillStroke"/>
          <text class="font-sans pillText" x="16" y="28">P 38g</text>
        </g>
        <g transform="translate(128,0)">
          <rect x="0" y="0" width="112" height="42" rx="10" class="pillBg"/>
          <rect x="0.5" y="0.5" width="111" height="41" rx="9.5" class="pillStroke"/>
          <text class="font-sans pillText" x="16" y="28">C 22g</text>
        </g>
        <g transform="translate(256,0)">
          <rect x="0" y="0" width="112" height="42" rx="10" class="pillBg"/>
          <rect x="0.5" y="0.5" width="111" height="41" rx="9.5" class="pillStroke"/>
          <text class="font-sans pillText" x="16" y="28">F 28g</text>
        </g>
      </g>

      <!-- Brand footer -->
      <g transform="translate(0,150)">
        <circle cx="14" cy="14" r="10" fill="#0B0C10" opacity="0.92"/>
        <text class="font-sans brand" x="36" y="22">food.app</text>
      </g>
    </g>
  </g>
</svg>

