<svg xmlns="http://www.w3.org/2000/svg" width="1200" height="630" viewBox="0 0 1200 630">
  <defs>
    <!-- Background gradient -->
    <linearGradient id="bgPhoto" x1="0" y1="0" x2="1" y2="1">
      <stop offset="0%" stop-color="#F4C77E"/>
      <stop offset="100%" stop-color="#D96A6B"/>
    </linearGradient>
    <!-- Vignette and bottom gradient for legibility -->
    <linearGradient id="legibility" x1="0" y1="0" x2="0" y2="1">
      <stop offset="55%" stop-color="#00000000"/>
      <stop offset="100%" stop-color="#000000B3"/>
    </linearGradient>
    <radialGradient id="vignette" cx="50%" cy="50%" r="70%">
      <stop offset="60%" stop-color="#00000000"/>
      <stop offset="100%" stop-color="#00000066"/>
    </radialGradient>
    <style><![CDATA[
      .font-sans { font-family: Inter, -apple-system, BlinkMacSystemFont, "Segoe UI", Roboto, "Helvetica Neue", Arial, "Noto Sans", "Liberation Sans", "DejaVu Sans", sans-serif; }
      .headline { fill: #FFFFFF; font-weight: 800; font-size: 72px; letter-spacing: -0.5px; }
      .subhead { fill: #FFFFFF; opacity: 0.9; font-weight: 600; font-size: 38px; }
      .pillText { fill: #FFFFFF; font-weight: 700; font-size: 26px; letter-spacing: 0.2px; }
      .pillBg { fill: #FFFFFF; opacity: 0.14; }
      .pillStroke { fill: none; stroke: #FFFFFF; stroke-opacity: 0.12; }
      .brand { fill: #FFFFFF; opacity: 0.92; font-weight: 700; font-size: 24px; letter-spacing: 0.2px; }
      .accent { fill: #5B8CFF; }
    ]]></style>
  </defs>

  <!-- Simulated photo background with stylized food shapes -->
  <rect x="0" y="0" width="1200" height="630" fill="url(#bgPhoto)"/>

  <!-- Abstract food illustration (circles, leaves, highlights) -->
  <g opacity="0.6">
    <circle cx="330" cy="260" r="140" fill="#FFF2CC"/>
    <circle cx="520" cy="300" r="110" fill="#FFD6A5"/>
    <circle cx="690" cy="210" r="90" fill="#FFE5B4"/>
    <circle cx="880" cy="310" r="130" fill="#FFB3B3"/>
    <ellipse cx="420" cy="220" rx="180" ry="60" fill="#77D68B" opacity="0.6"/>
    <ellipse cx="760" cy="260" rx="160" ry="50" fill="#6ECF90" opacity="0.6"/>
    <circle cx="600" cy="180" r="18" fill="#FFFFFF" opacity="0.35"/>
    <circle cx="950" cy="240" r="14" fill="#FFFFFF" opacity="0.35"/>
  </g>

  <!-- Vignette -->
  <rect x="0" y="0" width="1200" height="630" fill="url(#vignette)"/>
  <!-- Bottom legibility gradient overlay -->
  <rect x="0" y="0" width="1200" height="630" fill="url(#legibility)"/>

  <!-- Accent keyline at top -->
  <rect x="0" y="0" width="1200" height="6" class="accent"/>

  <!-- Safe area: 48px all around -->
  <g id="safe" transform="translate(48,48)">
    <!-- Text block positioned near bottom-left -->
    <g transform="translate(0,390)">
      <text class="font-sans headline" x="0" y="0">Chicken Caesar Salad</text>
      <text class="font-sans subhead" x="0" y="56">520 kcal · per bowl</text>

      <!-- Confidence chip -->
      <g transform="translate(0,90)">
        <rect x="0" y="0" width="104" height="42" rx="10" class="pillBg"/>
        <rect x="0.5" y="0.5" width="103" height="41" rx="9.5" class="pillStroke"/>
        <text class="font-sans pillText" x="20" y="28">±7%</text>
      </g>

      <!-- Macro pills row -->
      <g transform="translate(120,90)">
        <!-- P -->
        <g>
          <rect x="0" y="0" width="112" height="42" rx="10" class="pillBg"/>
          <rect x="0.5" y="0.5" width="111" height="41" rx="9.5" class="pillStroke"/>
          <text class="font-sans pillText" x="16" y="28">P 38g</text>
        </g>
        <!-- C -->
        <g transform="translate(128,0)">
          <rect x="0" y="0" width="112" height="42" rx="10" class="pillBg"/>
          <rect x="0.5" y="0.5" width="111" height="41" rx="9.5" class="pillStroke"/>
          <text class="font-sans pillText" x="16" y="28">C 22g</text>
        </g>
        <!-- F -->
        <g transform="translate(256,0)">
          <rect x="0" y="0" width="112" height="42" rx="10" class="pillBg"/>
          <rect x="0.5" y="0.5" width="111" height="41" rx="9.5" class="pillStroke"/>
          <text class="font-sans pillText" x="16" y="28">F 28g</text>
        </g>
      </g>

      <!-- Brand footer -->
      <g transform="translate(0,150)">
        <circle cx="14" cy="14" r="10" fill="#FFFFFF" opacity="0.92"/>
        <text class="font-sans brand" x="36" y="22">food.app</text>
      </g>
    </g>
  </g>
</svg>

